<svg width="257" height="256" viewBox="0 0 257 256" fill="none" xmlns="http://www.w3.org/2000/svg">
<path d="M60.7281 160.462L102.003 119.188C105.94 115.25 107.071 109.628 105.528 104.655L118.306 91.8767C122.125 94.9864 126.086 97.4726 129.98 99.287C130.277 98.4016 130.735 97.5879 131.405 96.9186L152.805 75.5184C153.469 74.8548 154.288 74.4048 155.185 74.1195C152.565 68.4889 148.55 62.7026 143.277 57.4297C137.9 52.0528 131.99 47.9712 126.253 45.358C125.953 46.1888 125.52 46.9588 124.886 47.5965L103.485 68.9967C102.854 69.6284 102.101 70.0901 101.261 70.3984C103.087 74.3963 105.637 78.4722 108.833 82.4009L96.0549 95.1794C91.0819 93.6361 85.4602 94.7671 81.5226 98.7043L40.2424 139.979C34.5859 145.636 34.5859 154.806 40.2424 160.462C45.8988 166.119 55.0716 166.119 60.7281 160.462Z" fill="white"/>
<path d="M133.441 98.9615C133.043 99.3597 132.789 99.8643 132.633 100.424C132.102 102.345 132.956 105.002 134.967 107.012C136.542 108.584 138.561 109.525 140.372 109.525C141.131 109.525 142.204 109.354 143.018 108.541L149.635 101.924L157.801 93.7579L164.418 87.1408C165.228 86.3303 165.557 85.09 165.338 83.6504C165.096 82.0467 164.224 80.4282 162.889 79.0929C161.314 77.5209 159.295 76.5805 157.486 76.5805C157.137 76.5805 156.719 76.6266 156.292 76.7448C155.79 76.8832 155.277 77.1255 154.838 77.567L133.441 98.9615Z" fill="white"/>
<path d="M98.7923 67.9471C99.1844 67.9471 99.6635 67.8952 100.148 67.7366C100.595 67.5894 101.048 67.353 101.44 66.9605L122.84 45.5603C123.198 45.2026 123.429 44.7498 123.59 44.2594C124.219 42.3297 123.383 39.5805 121.311 37.5124C119.737 35.9404 117.717 35 115.909 35C115.15 35 114.077 35.1703 113.263 35.9837L105.971 43.2757L99.1525 50.0919L91.8604 57.3839C90.095 59.1522 90.793 62.8385 93.3892 65.4346C94.9644 67.0067 96.9835 67.9471 98.7923 67.9471Z" fill="white"/>
<path d="M142.614 161.483C146.124 161.137 149.888 161.039 153.82 161.039C155.496 161.039 157.212 161.05 158.96 161.065C162.583 161.093 166.413 161.093 170.037 161.065C171.785 161.05 173.501 161.039 175.177 161.039C179.108 161.039 182.873 161.137 186.383 161.483V153.112H142.614V161.483Z" fill="white"/>
<path d="M175.177 163.923C173.51 163.923 171.802 163.935 170.06 163.949C166.42 163.975 162.577 163.975 158.94 163.949C157.198 163.935 155.49 163.923 153.823 163.923C149.741 163.923 145.997 164.004 142.617 164.324C131.468 165.377 124.473 169.139 123.997 182.082H205C204.524 169.139 197.529 165.38 186.381 164.325C183.003 164.004 179.256 163.923 175.177 163.923Z" fill="white"/>
</svg>
